<svg t="1607540512714" class="icon" viewBox="0 0 1067 1024" version="1.1" xmlns="http://www.w3.org/2000/svg" p-id="3761" width="200" height="200"><path d="M32.768 669.696L117.248 814.08c16.384 28.16 51.712 37.888 80.384 23.04l67.584-27.136c25.6 18.944 53.76 34.816 82.944 47.616l10.24 71.168c1.536 32.256 28.16 57.344 60.416 56.832h84.48v-283.648c-113.152-1.024-203.776-93.696-202.752-206.336S393.728 291.84 506.88 292.864s203.776 93.696 202.752 206.336c0 11.264-1.024 22.528-3.072 33.28h189.44c2.56-27.648 2.048-54.784-1.536-82.432l57.344-44.544c27.136-16.896 35.84-52.736 19.968-80.384l-84.48-144.384c-16.384-27.648-51.2-37.888-79.872-23.552L739.84 184.32c-25.6-18.944-53.76-34.816-82.944-47.104l-10.24-71.68c-1.536-31.744-28.16-56.832-59.904-56.832h-168.96c-32.256 0-58.88 25.088-60.416 56.832l-10.24 71.168C317.44 148.992 289.792 164.864 264.192 184.32l-66.56-26.624c-28.672-14.848-63.488-4.608-79.872 23.552L33.28 325.632C16.896 353.28 25.6 388.608 52.736 405.504l57.344 44.544c-4.096 31.232-4.096 63.488 0 94.72l-57.856 44.544c-26.624 16.896-35.328 52.736-19.456 80.384m991.744-69.12h-430.08c-10.24 0-17.92 11.264-17.92 25.6V686.08c0 13.824 7.68 25.6 17.92 25.6h430.08c10.24 0 17.92-11.264 17.92-25.6v-59.904c-0.512-14.336-8.192-25.6-17.92-25.6z m17.408 177.152c0-13.824-7.68-25.6-17.92-25.6h-430.08c-10.24 0-17.92 11.264-17.92 25.6v59.904c0 13.824 7.68 25.6 17.92 25.6h430.08c10.24 0 17.92-11.264 17.92-25.6v-59.904z m-17.408 126.464h-430.08c-10.24 0-17.92 11.264-17.92 25.6v59.904c0 13.824 7.68 25.6 17.92 25.6h430.08c10.24 0 17.92-11.264 17.92-25.6v-59.904c-0.512-14.336-8.192-25.6-17.92-25.6z" p-id="3762" fill="#ffffff"></path></svg>